<svg width="400" height="240" viewBox="0 0 400 240" xmlns="http://www.w3.org/2000/svg">
  <defs>
    <linearGradient id="bgGradient14" x1="0%" y1="0%" x2="100%" y2="100%">
      <stop offset="0%" style="stop-color:#ff9a9e;stop-opacity:1" />
      <stop offset="100%" style="stop-color:#fecfef;stop-opacity:1" />
    </linearGradient>
  </defs>
  
  <!-- Background -->
  <rect width="400" height="240" fill="url(#bgGradient14)"/>
  
  <!-- Email/Message -->
  <rect x="120" y="60" width="160" height="100" fill="#ffffff" opacity="0.95" rx="8"/>
  <rect x="130" y="70" width="140" height="20" fill="#ef4444"/>
  <text x="200" y="82" text-anchor="middle" fill="white" font-family="Arial" font-size="10" font-weight="bold">URGENT: Verify Account</text>
  
  <!-- Fake Content -->
  <rect x="135" y="100" width="120" height="4" fill="#d1d5db"/>
  <rect x="135" y="110" width="100" height="4" fill="#d1d5db"/>
  <rect x="135" y="120" width="110" height="4" fill="#d1d5db"/>
  
  <!-- Malicious Link -->
  <rect x="135" y="135" width="80" height="15" fill="#ef4444" opacity="0.3"/>
  <text x="175" y="145" text-anchor="middle" fill="#ef4444" font-family="Arial" font-size="8" font-weight="bold">Click Here</text>
  
  <!-- Phishing Hook -->
  <path d="M80 50 Q90 40 100 50 L100 80 Q100 90 90 90 L80 90" stroke="#ef4444" stroke-width="4" fill="none"/>
  <circle cx="75" cy="50" r="4" fill="#ef4444"/>
  
  <path d="M320 50 Q310 40 300 50 L300 80 Q300 90 310 90 L320 90" stroke="#ef4444" stroke-width="4" fill="none"/>
  <circle cx="325" cy="50" r="4" fill="#ef4444"/>
  
  <!-- Smartphone with SMS -->
  <rect x="60" y="120" width="40" height="60" rx="8" fill="#1f2937"/>
  <rect x="65" y="130" width="30" height="40" fill="#3b82f6"/>
  <rect x="68" y="135" width="24" height="3" fill="#ffffff" opacity="0.8"/>
  <rect x="68" y="140" width="20" height="3" fill="#ffffff" opacity="0.8"/>
  <rect x="68" y="145" width="22" height="3" fill="#ffffff" opacity="0.8"/>
  
  <!-- Warning Shield -->
  <path d="M310 120 L340 120 Q350 120 350 130 L350 150 Q350 160 340 165 L325 175 L310 165 Q300 160 300 150 L300 130 Q300 120 310 120 Z" fill="#fbbf24"/>
  <text x="325" y="155" text-anchor="middle" fill="white" font-family="Arial" font-size="16" font-weight="bold">!</text>
  
  <!-- Title Area -->
  <rect x="20" y="190" width="360" height="40" fill="rgba(255,255,255,0.1)" rx="8"/>
  <text x="200" y="208" text-anchor="middle" fill="white" font-family="Arial" font-size="16" font-weight="bold">Phishing Emails &amp; Fake SMS:</text>
  <text x="200" y="224" text-anchor="middle" fill="white" font-family="Arial" font-size="16" font-weight="bold">Don't Take the Bait</text>
</svg>